<?xml version="1.0" encoding="utf-8"?>
<!-- Generator: Adobe Illustrator 22.1.0, SVG Export Plug-In . SVG Version: 6.00 Build 0)  -->
<svg version="1.1" id="Capa_1" xmlns="http://www.w3.org/2000/svg" xmlns:xlink="http://www.w3.org/1999/xlink" x="0px" y="0px"
	 viewBox="0 0 512 512" style="enable-background:new 0 0 512 512;" xml:space="preserve">
<style type="text/css">
	.st0{fill:#92969E;}
</style>
<g>
	<g>
		<path class="st0" d="M497,80.3h-65.3V15c0-8.3-6.7-15-15-15s-15,6.7-15,15v65.3h-65.3c-8.3,0-15,6.7-15,15s6.7,15,15,15h65.3v65.3
			c0,8.3,6.7,15,15,15s15-6.7,15-15v-65.3H497c8.3,0,15-6.7,15-15S505.3,80.3,497,80.3z"/>
	</g>
</g>
<g>
	<g>
		<path class="st0" d="M175.7,321.3C78.8,321.3,0,400.1,0,497c0,8.3,6.7,15,15,15h321.3c8.3,0,15-6.7,15-15
			C351.3,400.1,272.5,321.3,175.7,321.3z"/>
	</g>
</g>
<g>
	<g>
		<path class="st0" d="M175.7,64.3c-52.6,0-95.3,42.8-95.3,95.3s42.8,95.3,95.3,95.3c52.6,0,95.3-42.8,95.3-95.3
			S228.2,64.3,175.7,64.3z"/>
	</g>
</g>
</svg>
