<?xml version="1.0" encoding="utf-8"?>
<!-- Generator: Adobe Illustrator 22.1.0, SVG Export Plug-In . SVG Version: 6.00 Build 0)  -->
<svg version="1.1" id="Capa_1" xmlns="http://www.w3.org/2000/svg" xmlns:xlink="http://www.w3.org/1999/xlink" x="0px" y="0px"
	 viewBox="0 0 801 16" style="enable-background:new 0 0 801 16;" xml:space="preserve">
<style type="text/css">
	.st0{fill:none;stroke:#000000;stroke-miterlimit:10;}
</style>
<g>
	<path d="M379.5,0c-4.4,0-8,3.6-8,8s3.6,8,8,8s8-3.6,8-8S383.9,0,379.5,0z"/>
	<path d="M423.5,0c-4.4,0-8,3.6-8,8s3.6,8,8,8s8-3.6,8-8S427.9,0,423.5,0z"/>
	<path d="M401.5,0c-4.4,0-8,3.6-8,8s3.6,8,8,8s8-3.6,8-8S405.9,0,401.5,0z"/>
</g>
<line class="st0" x1="440" y1="8" x2="801" y2="8"/>
<line class="st0" x1="0" y1="8" x2="361" y2="8"/>
</svg>
