<?xml version="1.0" encoding="utf-8"?>
<!-- Generator: Adobe Illustrator 22.1.0, SVG Export Plug-In . SVG Version: 6.00 Build 0)  -->
<svg version="1.1" id="Capa_1" xmlns="http://www.w3.org/2000/svg" xmlns:xlink="http://www.w3.org/1999/xlink" x="0px" y="0px"
	 viewBox="0 0 492.4 492.4" style="enable-background:new 0 0 492.4 492.4;" xml:space="preserve">
<style type="text/css">
	.st0{fill:#FFFFFF;}
</style>
<path class="st0" d="M389.4,367.8v83c0,5.5,4.5,10,10,10h83c5.5,0,10-4.5,10-10v-83c0-5.5-4.5-10-10-10h-25V244.5
	c0-9.1-7.4-16.5-16.5-16.5H262.7v-58.4h39.2c7.4,0,13.4-6,13.4-13.4V44.9c0-7.4-6-13.4-13.4-13.4H190.5c-7.4,0-13.4,6-13.4,13.4
	v111.3c0,7.4,6,13.4,13.4,13.4h39.2V228H51.5c-9.1,0-16.5,7.4-16.5,16.5v113.3H10c-5.5,0-10,4.5-10,10l0,83c0,5.5,4.5,10,10,10h83
	c5.5,0,10-4.5,10-10v-83c0-5.5-4.5-10-10-10H68V261h161.7v96.8h-25c-5.5,0-10,4.5-10,10v83c0,5.5,4.5,10,10,10h83
	c5.5,0,10-4.5,10-10v-83c0-5.5-4.5-10-10-10h-25V261h161.7v96.8h-25C393.8,357.8,389.4,362.3,389.4,367.8z"/>
</svg>
