<?xml version="1.0" encoding="utf-8"?>
<!-- Generator: Adobe Illustrator 22.1.0, SVG Export Plug-In . SVG Version: 6.00 Build 0)  -->
<svg version="1.1" id="Capa_1" xmlns="http://www.w3.org/2000/svg" xmlns:xlink="http://www.w3.org/1999/xlink" x="0px" y="0px"
	 viewBox="0 0 454 481.6" style="enable-background:new 0 0 454 481.6;" xml:space="preserve">
<g>
	<path d="M0,395.5c0,47.5,38.6,86.1,86.1,86.1s86.1-38.7,86.1-86.1c0-10-1.8-19.7-5-28.7l132.2-73.9c15.8,20.6,40.6,33.9,68.4,33.9
		c47.5,0,86.2-38.6,86.2-86.1s-38.7-86.1-86.1-86.1c-27.8,0-52.6,13.2-68.3,33.8l-132.1-73.8c3.2-8.9,4.9-18.5,4.9-28.5
		C172.4,38.6,133.8,0,86.3,0S0.2,38.6,0.2,86.1s38.7,86.1,86.1,86.1c27.8,0,52.6-13.3,68.3-33.8l132.2,73.8
		c-3.2,9-4.9,18.5-4.9,28.5c0,9.9,1.7,19.5,4.8,28.4L154.4,343c-15.8-20.4-40.5-33.6-68.2-33.6C38.7,309.4,0,348,0,395.5z
		 M145.3,86.2c0,32.6-26.5,59.1-59.1,59.1s-59.1-26.5-59.1-59.1s26.5-59.1,59.1-59.1C118.7,27.1,145.3,53.6,145.3,86.2z
		 M308.7,240.7c0-32.6,26.5-59.1,59.1-59.1s59.1,26.5,59.1,59.1s-26.5,59.1-59.1,59.1C335.3,299.8,308.7,273.3,308.7,240.7z
		 M27.1,395.4c0-32.6,26.5-59.1,59.1-59.1s59.1,26.5,59.1,59.1s-26.5,59.1-59.1,59.1S27.1,428,27.1,395.4z"/>
</g>
</svg>
