<?xml version="1.0" encoding="utf-8"?>
<!-- Generator: Adobe Illustrator 22.1.0, SVG Export Plug-In . SVG Version: 6.00 Build 0)  -->
<svg version="1.1" id="Capa_1" xmlns="http://www.w3.org/2000/svg" xmlns:xlink="http://www.w3.org/1999/xlink" x="0px" y="0px"
	 viewBox="0 0 547 547" style="enable-background:new 0 0 547 547;" xml:space="preserve">
<style type="text/css">
	.st0{fill:#B8C3D5;}
</style>
<g>
	<g id="Layer_1_154_">
		<g>
			<path class="st0" d="M488.3,7h-218c-31.9,0-57.4,25.5-57.4,57.4v137.7c0,2.6,0,3.8,0,6.4v79.1l35.7-12.8V64.4
				c0-11.5,10.2-21.7,21.7-21.7h219.3c11.5,0,21.7,10.2,21.7,21.7v418.2c0,11.5-10.2,21.7-21.7,21.7h-218
				c-11.5,0-21.7-10.2-21.7-21.7v-24.2l-35.7,12.8v11.5c0,31.9,25.5,57.4,57.4,57.4h218c31.9,0,57.4-25.5,57.4-57.4V64.4
				C545.7,32.5,520.2,7,488.3,7z"/>
			<path class="st0" d="M381.2,81h-76.5c-7.6,0-15.3,6.4-15.3,15.3V197c0,7.6,6.4,15.3,15.3,15.3h76.5c7.6,0,15.3-6.4,15.3-15.3
				V96.3C396.5,87.3,388.9,81,381.2,81z"/>
			<path class="st0" d="M474.3,267.1H325.1c17.9,6.4,34.4,19.1,44.6,35.7h104.6c10.2,0,17.9-7.6,17.9-17.9
				C492.1,274.8,484.5,267.1,474.3,267.1z"/>
			<path class="st0" d="M474.3,338.5h-91.8c1.3,11.5,0,24.2-3.8,35.7h95.6c10.2,0,17.9-7.6,17.9-17.9
				C492.1,347.4,484.5,338.5,474.3,338.5z"/>
			<path class="st0" d="M474.3,409.9H357c-8.9,8.9-19.1,15.3-30.6,19.1L283,444.3h1.3h190c10.2,0,17.9-7.6,17.9-17.9
				C492.1,416.3,484.5,409.9,474.3,409.9z"/>
			<path class="st0" d="M343,369.1c5.1-12.8,6.4-26.8,1.3-39.5c-7.6-19.1-26.8-31.9-47.2-31.9c-6.4,0-11.5,1.3-17.9,2.6l-100.7,37
				V208.5c0-8.9-5.1-17.9-14-22.9c-3.8-2.6-7.6-2.6-11.5-2.6c-5.1,0-10.2,1.3-14,3.8L28,262c-17.8,11.5-28,31.9-28,52.3V429
				c0,30.6,23,57.4,53.5,62.5l52.3,8.9c3.8,0,7.7,1.3,11.5,1.3c25.5,0,49.7-16.6,59.9-40.8l6.4-17.9l131.3-48.5
				C326.4,392.1,337.9,381.9,343,369.1z"/>
		</g>
	</g>
</g>
</svg>
