<?xml version="1.0" encoding="utf-8"?>
<!-- Generator: Adobe Illustrator 22.1.0, SVG Export Plug-In . SVG Version: 6.00 Build 0)  -->
<svg version="1.1" id="Capa_1" xmlns="http://www.w3.org/2000/svg" xmlns:xlink="http://www.w3.org/1999/xlink" x="0px" y="0px"
	 viewBox="0 0 63.5 71.2" style="enable-background:new 0 0 63.5 71.2;" xml:space="preserve">
<style type="text/css">
	.st0{fill:#B8C3D5;}
</style>
<path class="st0" d="M29.9,13.7c3.7,2.3,6.3,6.3,6.8,10.8c1.5,0.7,3.2,1.1,5,1.1c6.5,0,11.8-5.3,11.8-11.8S48.2,2,41.7,2
	C35.2,2.1,30,7.3,29.9,13.7z M22.2,37.7c6.5,0,11.8-5.3,11.8-11.8s-5.3-11.8-11.8-11.8S10.4,19.5,10.4,26S15.7,37.7,22.2,37.7z
	 M27.1,38.5h-10c-8.3,0-15,6.8-15,15v12.2v0.2L3,66.2c7.9,2.5,14.8,3.3,20.5,3.3c11.1,0,17.5-3.2,17.9-3.4l0.8-0.4h0.1V53.6
	C42.2,45.3,35.4,38.5,27.1,38.5z M46.6,26.4h-9.9c-0.1,4-1.8,7.5-4.5,10.1c7.4,2.2,12.8,9,12.8,17.1v3.8c9.8-0.4,15.4-3.1,15.8-3.3
	l0.8-0.4h0.1V41.4C61.6,33.2,54.9,26.4,46.6,26.4z"/>
</svg>
