<?xml version="1.0" encoding="utf-8"?>
<!-- Generator: Adobe Illustrator 22.1.0, SVG Export Plug-In . SVG Version: 6.00 Build 0)  -->
<svg version="1.1" id="Layer_1" xmlns="http://www.w3.org/2000/svg" xmlns:xlink="http://www.w3.org/1999/xlink" x="0px" y="0px"
	 viewBox="0 0 128 128" style="enable-background:new 0 0 128 128;" xml:space="preserve">
<style type="text/css">
	.st0{fill:#69737D;}
</style>
<g>
	<g>
		<path class="st0" d="M56,40H24v32h32V40z M24,88h80v-8H24V88z M24,104h80v-8H24V104z M64,48h40v-8H64V48z M64,64h40v-8H64V64z
			 M120,0H8C3.6,0,0,3.6,0,8v112c0,4.4,3.6,8,8,8h112c4.4,0,8-3.6,8-8V8C128,3.6,124.4,0,120,0z M100,8c2.2,0,4,1.8,4,4s-1.8,4-4,4
			s-4-1.8-4-4S97.8,8,100,8z M28,8h56c2.2,0,4,1.8,4,4s-1.8,4-4,4H28c-2.2,0-4-1.8-4-4S25.8,8,28,8z M12,8c2.2,0,4,1.8,4,4
			s-1.8,4-4,4s-4-1.8-4-4S9.8,8,12,8z M120,112c0,4.4-3.6,8-8,8H16c-4.4,0-8-3.6-8-8V32c0-4.4,3.6-8,8-8h96c4.4,0,8,3.6,8,8V112z
			 M116,16c-2.2,0-4-1.8-4-4s1.8-4,4-4s4,1.8,4,4S118.2,16,116,16z"/>
	</g>
</g>
</svg>
