<?xml version="1.0" encoding="utf-8"?>
<!-- Generator: Adobe Illustrator 22.1.0, SVG Export Plug-In . SVG Version: 6.00 Build 0)  -->
<svg version="1.1" id="Capa_1" xmlns="http://www.w3.org/2000/svg" xmlns:xlink="http://www.w3.org/1999/xlink" x="0px" y="0px"
	 viewBox="0 0 512 512" style="enable-background:new 0 0 512 512;" xml:space="preserve">
<style type="text/css">
	.st0{fill:#B8C3D5;}
</style>
<g>
	<g>
		<path class="st0" d="M0,332v180h210V332H0z M180,482H30v-90h150V482z"/>
	</g>
</g>
<g>
	<g>
		<polygon class="st0" points="271,241 271,210 241,210 241,241 90,241 90,302 120,302 120,271 392,271 392,302 422,302 422,241 		
			"/>
	</g>
</g>
<g>
	<g>
		<path class="st0" d="M302,332v180h210V332H302z M482,482H332v-90h150V482z"/>
	</g>
</g>
<g>
	<g>
		<path class="st0" d="M151,0v180h210V0H151z M331,150H181V60h150V150z"/>
	</g>
</g>
</svg>
